<?xml version="1.0" encoding="UTF-8" standalone="no"?>
<!--
Based on ic_voice_search_api_material.xml from API 23

Copyright (C) 2014 The Android Open Source Project

   Licensed under the Apache License, Version 2.0 (the "License");
    you may not use this file except in compliance with the License.
    You may obtain a copy of the License at

         http://www.apache.org/licenses/LICENSE-2.0

    Unless required by applicable law or agreed to in writing, software
    distributed under the License is distributed on an "AS IS" BASIS,
    WITHOUT WARRANTIES OR CONDITIONS OF ANY KIND, either express or implied.
    See the License for the specific language governing permissions and
    limitations under the License.
-->

<svg
   android:tint="#99000000"
   height="24.0"
   width="24.0"
   version="1.1"
   id="svg27"
   sodipodi:docname="esperanta_parolrekono.svg"
   inkscape:version="1.1.2 (0a00cf5339, 2022-02-04)"
   xmlns:inkscape="http://www.inkscape.org/namespaces/inkscape"
   xmlns:sodipodi="http://sodipodi.sourceforge.net/DTD/sodipodi-0.dtd"
   xmlns:xlink="http://www.w3.org/1999/xlink"
   xmlns="http://www.w3.org/2000/svg"
   xmlns:svg="http://www.w3.org/2000/svg"
   xmlns:android="http://schemas.android.com/apk/res/android">
  <defs
     id="defs31">
    <linearGradient
       x1="-72.777122"
       y1="446.85532"
       x2="267.06284"
       y2="446.85532"
       id="linearGradient2766"
       xlink:href="#linearGradient2760"
       gradientUnits="userSpaceOnUse" />
    <linearGradient
       id="linearGradient2760">
      <stop
         style="stop-color:#008600;stop-opacity:1"
         offset="0"
         id="stop2762" />
      <stop
         style="stop-color:#00be00;stop-opacity:1"
         offset="1"
         id="stop2764" />
    </linearGradient>
  </defs>
  <sodipodi:namedview
     id="namedview29"
     pagecolor="#ffffff"
     bordercolor="#666666"
     borderopacity="1.0"
     inkscape:pageshadow="2"
     inkscape:pageopacity="0.0"
     inkscape:pagecheckerboard="0"
     showgrid="false"
     inkscape:zoom="27.580209"
     inkscape:cx="9.4633075"
     inkscape:cy="10.822978"
     inkscape:window-width="1920"
     inkscape:window-height="1136"
     inkscape:window-x="0"
     inkscape:window-y="0"
     inkscape:window-maximized="1"
     inkscape:current-layer="svg27" />
  <!-- android:tint="?attr/colorControlNormal"> -->
  <g
     transform="matrix(0.09641393,0,0,0.09641393,-1.5600328,-1.3827684)"
     id="layer1">
    <path
       d="M 97.142865,286.44063 136.5931,409.49215 265.81284,408.98655 160.97469,484.53096 201.38664,607.27 97.142861,530.90749 -7.1009243,607.26999 33.311036,484.53096 -71.527119,408.98654 57.692623,409.49215 Z"
       transform="matrix(0.735534,0,0,0.735433,69.65498,-192.8206)"
       style="opacity:1;fill:url(#linearGradient2766);fill-opacity:1;fill-rule:evenodd;stroke:#007f00;stroke-width:2.54934;stroke-linecap:butt;stroke-linejoin:miter;stroke-miterlimit:4;stroke-dasharray:none;stroke-dashoffset:0;stroke-opacity:1"
       id="path1872" />
  </g>
  <path
     d="m 12.09512,13.472721 c 1.125099,0 1.985468,-0.77971 1.985468,-1.79933 V 8.0747302 c 0,-1.0196205 -0.860369,-1.7993307 -1.985468,-1.7993307 -1.125098,0 -1.985466,0.7797102 -1.985466,1.7993307 v 3.5986608 c 0,1.01962 0.860368,1.79933 1.985466,1.79933 z m 3.507658,-1.79933 c 0,1.79933 -1.654555,3.058862 -3.507658,3.058862 -1.853102,0 -3.5076584,-1.259532 -3.5076584,-3.058862 H 7.4623641 c 0,2.039242 1.7869204,3.718617 3.9709349,4.018505 v 1.979263 h 1.323644 v -1.979263 c 2.184013,-0.299888 3.970934,-1.979263 3.970934,-4.018505 z"
     fill="#a0a0a0"
     id="path25"
     style="fill:#e5e5e5;fill-opacity:1;stroke-width:0.630035" />
</svg>
